<svg width="25" height="24" viewBox="0 0 25 24" fill="none" xmlns="http://www.w3.org/2000/svg">
<path d="M12.5 0C10.1823 0 7.91655 0.687293 5.98942 1.97497C4.06228 3.26264 2.56026 5.09286 1.67329 7.23418C0.786327 9.3755 0.554257 11.7317 1.00643 14.005C1.4586 16.2782 2.5747 18.3663 4.2136 20.0052C5.85249 21.6441 7.94058 22.7602 10.2138 23.2123C12.487 23.6645 14.8433 23.4324 16.9846 22.5455C19.1259 21.6585 20.9561 20.1565 22.2438 18.2293C23.5315 16.3022 24.2188 14.0365 24.2188 11.7187C24.2126 8.61265 22.9759 5.63553 20.7796 3.43918C18.5832 1.24283 15.6061 0.00619364 12.5 0ZM12.5 22.5C10.3677 22.5 8.28323 21.8677 6.51026 20.683C4.7373 19.4984 3.35544 17.8146 2.53943 15.8446C1.72342 13.8745 1.50992 11.7068 1.92591 9.61543C2.34191 7.52407 3.36873 5.60304 4.87651 4.09525C6.38429 2.58747 8.30533 1.56066 10.3967 1.14466C12.488 0.728662 14.6558 0.942166 16.6258 1.75817C18.5958 2.57418 20.2796 3.95604 21.4643 5.72901C22.6489 7.50198 23.2813 9.58642 23.2813 11.7187C23.2782 14.5772 22.1413 17.3176 20.1201 19.3388C18.0989 21.36 15.3584 22.4969 12.5 22.5ZM16.8125 10.6758C16.8965 10.7667 16.9432 10.886 16.9432 11.0098C16.9432 11.1336 16.8965 11.2528 16.8125 11.3438C16.7677 11.3873 16.7144 11.4213 16.6559 11.4434C16.5975 11.4656 16.5351 11.4756 16.4727 11.4727C16.4121 11.4746 16.3517 11.4642 16.2953 11.4421C16.2389 11.4199 16.1876 11.3864 16.1445 11.3438L12.9688 8.16797V16.4062C12.9688 16.5306 12.9194 16.6498 12.8315 16.7377C12.7436 16.8256 12.6243 16.875 12.5 16.875C12.3757 16.875 12.2565 16.8256 12.1685 16.7377C12.0806 16.6498 12.0313 16.5306 12.0313 16.4062V8.16797L8.85547 11.3438C8.7669 11.4323 8.64676 11.4821 8.52149 11.4821C8.39622 11.4821 8.27608 11.4323 8.1875 11.3438C8.09893 11.2552 8.04916 11.135 8.04916 11.0098C8.04916 10.8845 8.09893 10.7644 8.1875 10.6758L12.1719 6.70312C12.2145 6.65918 12.2655 6.62424 12.3218 6.60038C12.3782 6.57652 12.4388 6.56423 12.5 6.56423C12.5612 6.56423 12.6218 6.57652 12.6782 6.60038C12.7345 6.62424 12.7855 6.65918 12.8281 6.70312L16.8125 10.6758Z" fill="#3A4736"/>
</svg>
